<svg width="75" height="76" viewBox="0 0 75 76" fill="none" xmlns="http://www.w3.org/2000/svg">
<rect width="75" height="76" rx="7" fill="url(#paint0_linear)"/>
<path d="M46.8516 44.8203C47.0703 44.2422 47.1797 43.6875 47.1797 43.1562C47.1797 42.625 47.0469 42.1172 46.7812 41.6328C46.5312 41.1484 46.1953 40.7344 45.7734 40.3906C45.3516 40.0312 44.8672 39.7344 44.3203 39.5C43.7734 39.25 43.2109 39.0391 42.6328 38.8672C42.0547 38.6953 41.4844 38.5547 40.9219 38.4453C40.3594 38.3203 39.8047 38.1953 39.2578 38.0703C38.7266 37.9453 38.1172 37.8125 37.4297 37.6719C36.7578 37.5312 36.0781 37.375 35.3906 37.2031C34.7188 37.0156 34.0625 36.7891 33.4219 36.5234C32.7969 36.2578 32.2266 35.9375 31.7109 35.5625C30.5859 34.7656 29.8906 33.7188 29.625 32.4219C29.2344 33.2656 29.0391 34.1016 29.0391 34.9297C29.0391 35.7578 29.1797 36.4531 29.4609 37.0156C29.7578 37.5781 30.1406 38.0703 30.6094 38.4922C31.0938 38.9141 31.6406 39.2734 32.25 39.5703C32.8594 39.8516 33.4922 40.0938 34.1484 40.2969C35.3047 40.625 36.3125 40.8359 37.1719 40.9297C38.0469 41.0234 38.7656 41.1172 39.3281 41.2109C39.9062 41.2891 40.5078 41.3984 41.1328 41.5391C41.7578 41.6797 42.3828 41.8516 43.0078 42.0547C43.6328 42.2422 44.2109 42.4688 44.7422 42.7344C45.9141 43.3281 46.6172 44.0234 46.8516 44.8203ZM44.1562 31.0391C42.1406 29.4453 39.5625 28.6484 36.4219 28.6484C34.5312 28.6484 33.1875 29.1641 32.3906 30.1953C32.1094 30.5703 31.9688 31.0156 31.9688 31.5312C31.9688 32.0469 32.125 32.4922 32.4375 32.8672C32.75 33.2266 33.1484 33.5469 33.6328 33.8281C34.1172 34.1094 34.6562 34.3516 35.25 34.5547C35.8594 34.7578 36.4531 34.9297 37.0312 35.0703C37.625 35.2109 38.1719 35.3281 38.6719 35.4219C39.1875 35.5156 39.7891 35.6328 40.4766 35.7734C41.1797 35.9141 42.1016 36.1641 43.2422 36.5234C44.3984 36.8672 45.4531 37.3281 46.4062 37.9062C48.5625 39.25 49.6406 41.0547 49.6406 43.3203C49.6406 45.8203 48.4531 47.8281 46.0781 49.3438C43.9531 50.7031 41.6641 51.3828 39.2109 51.3828C35.1016 51.3828 31.6484 50.1875 28.8516 47.7969V48.5938C28.8516 48.8438 28.8672 49.0859 28.8984 49.3203V49.4141C28.8984 49.7266 28.7891 50.0078 28.5703 50.2578C28.3672 50.5078 28.0938 50.6328 27.75 50.6328C27.4219 50.6328 27.125 50.5234 26.8594 50.3047C26.6094 50.1016 26.4688 49.8438 26.4375 49.5312C26.4062 49.2188 26.3906 48.9062 26.3906 48.5938V47.6094C26.3906 46.3594 26.4297 45.2578 26.5078 44.3047C26.5859 43.3359 26.6328 42.7656 26.6484 42.5938C26.6797 42.4219 26.8047 42.2344 27.0234 42.0312C27.2578 41.8125 27.5469 41.7031 27.8906 41.7031C28.25 41.7031 28.5391 41.8281 28.7578 42.0781C28.9766 42.3281 29.0859 42.6016 29.0859 42.8984V43.0391C29.0391 43.4609 28.9922 43.9609 28.9453 44.5391C31.6641 47.4453 35.0859 48.8984 39.2109 48.8984C41.0547 48.8984 42.5469 48.5938 43.6875 47.9844C44.4531 47.5781 44.8359 47.0625 44.8359 46.4375C44.8359 45.125 42.7344 44.1641 38.5312 43.5547C38.1094 43.4922 37.5078 43.4219 36.7266 43.3438C35.9609 43.25 34.9219 43.0156 33.6094 42.6406C32.3125 42.25 31.1406 41.7188 30.0938 41.0469C27.7656 39.5469 26.6016 37.5547 26.6016 35.0703C26.6016 32.4297 27.625 30.2578 29.6719 28.5547C31.5469 26.9766 33.7969 26.1875 36.4219 26.1875C39.8125 26.1875 42.6953 27.0078 45.0703 28.6484C45.6641 27.1797 46.1719 26.3438 46.5938 26.1406C46.7969 26.0469 47.0312 26 47.2969 26C47.5781 26 47.8359 26.125 48.0703 26.375C48.3047 26.6094 48.4219 26.8672 48.4219 27.1484C48.4219 27.4297 48.2422 27.875 47.8828 28.4844C46.8516 30.25 46.2031 32.2031 45.9375 34.3438C45.8906 34.6406 45.75 34.8906 45.5156 35.0938C45.2812 35.2969 45 35.3984 44.6719 35.3984C44.3438 35.3984 44.0625 35.2734 43.8281 35.0234C43.5938 34.7578 43.4766 34.4688 43.4766 34.1562V33.9688C43.6484 33 43.875 32.0234 44.1562 31.0391Z" fill="white"/>
<defs>
<linearGradient id="paint0_linear" x1="2.72728" y1="2.15094" x2="88.0117" y2="84.6158" gradientUnits="userSpaceOnUse">
<stop stop-color="#7A64FF"/>
<stop offset="1" stop-color="#3C1CFA" stop-opacity="0.89"/>
</linearGradient>
</defs>
</svg>
